M48
;Layer_Color=9474304
;FILE_FORMAT=2:4
METRIC,LZ
;TYPE=PLATED
T7F00S00C0.5000
T9F00S00C0.6500
T12F00S00C0.8000
T16F00S00C1.0000
%
G90
G05
T07
G00X8851Y263
M15
G01Y269
M16
G00X8887Y307
M15
G01Y313
M16
G00X9713Y307
M15
G01Y313
M16
G00X9749Y263
M15
G01Y269
M16
G00X13851Y263
M15
G01Y269
M16
G00X13887Y307
M15
G01Y313
M16
G00X14713Y307
M15
G01Y313
M16
G00X14749Y263
M15
G01Y269
M16
G00X306Y11087
M15
G01X312
M16
G00X262Y11051
M15
G01X268
M16
G00X262Y11949
M15
G01X268
M16
G00X306Y11913
M15
G01X312
M16
G00X12587Y1594
M15
G01Y1588
M16
G00X12551Y1638
M15
G01Y1632
M16
G00X13449Y1638
M15
G01Y1632
M16
G00X13413Y1594
M15
G01Y1588
M16
T09
G00X9645Y3224
M15
G01X9675
M16
G00X14645Y3224
M15
G01X14675
M16
G00X3214Y11155
M15
G01Y11125
M16
G00X12655Y15786
M15
G01X12625
M16
T12
G00X315Y14235
M15
G01Y14365
M16
T16
G00X305Y13825
M15
G01X315
M16
G00X362Y13825
M15
G01X352
M16
G00X362Y14775
M15
G01X352
M16
G00X305Y14775
M15
G01X315
M16
M17
M30
