M48
;Layer_Color=9474304
;FILE_FORMAT=2:4
METRIC,LZ
;TYPE=PLATED
T1F00S00C0.1000
T2F00S00C0.2000
T3F00S00C0.2500
T4F00S00C0.3300
T5F00S00C0.4000
T6F00S00C0.5000
T8F00S00C0.6500
T10F00S00C0.7000
T11F00S00C0.8000
T13F00S00C0.9200
T14F00S00C0.9250
T15F00S00C1.0000
T17F00S00C1.0500
T18F00S00C1.2700
T19F00S00C1.3000
T20F00S00C1.5000
T21F00S00C1.6000
T22F00S00C1.7000
T23F00S00C2.2600
T24F00S00C3.7000
T25F00S00C4.5000
%
T01
X68Y368
X806Y366771
X818Y371
X827
X834Y366771
X83Y385
X815
X8055Y3905
X839Y392
X915125Y355
X919875
X927625Y346
X932375
X940125Y355
X944875
X93Y368
X9325Y325
X9275
X9225Y328
X13095Y3445
X1306Y351771
X13055Y3755
X1314Y38925
X132
X1326
Y39525
X132
X1314
X1318Y364
X1327
X13345Y3755
X1334Y351771
X1327Y336
X14225Y328
X14275Y325
X14325
X1432375Y346
X1427625
X1419875Y355
X1415125
X1440125
X1444875
X143Y368
X1355Y413
X1281Y51
X128049Y51651
X1412Y64
X142825
X1461
Y634
X1467
Y64
Y646
X1461
X146Y67325
X147Y689
X149Y658
X1503Y64
Y6325
X149Y622
X1478Y594
X146Y595
X1529Y5
X1541385Y508
X1546135
X1158Y557865
Y562615
X111075Y552
X1117Y592
X1108Y616
X108Y669
X1068
X1063Y67675
X1057348Y672652
X1052Y669
X1044
X1024
X1016
X1028Y648
X992Y651
X991055Y639944
X99225Y621
X992Y596375
Y591625
X971Y6
X964Y588375
Y583625
Y576375
Y571625
X971Y556
X947Y554
X947975Y595475
X945Y65
Y657
X934Y675
X922Y635135
Y630385
X955Y764
X966
X1014Y76
X1003Y779
X987Y733
X1045Y732
X1057Y77
X1048375Y552
X1043625
X1006615Y482
X1001865
X9815Y491
X8645Y427
X826Y41025
X82
X814
Y40425
X82
X826
X118Y408
X68Y46
X47275Y54525
X378Y1043
X3527Y10569
X3273Y10431
X327Y11575
X41125Y11575
X41125Y11425
X4275Y112125
X4325
X45225Y109825
X46675Y11425
X45825Y1169
X46Y11825
X4475Y117675
X4375
X51475Y118
X5075Y11655
X49925Y1125
X56075Y1125
Y118
X70875Y11055
X71375
X70375Y1058
X72325Y1039
X7825Y10275
X4035Y10131
X845Y102
X942Y11
X938055Y1106055
X936Y1113
X101Y1145
Y115525
Y1161
Y1169
X10338Y1173
X1038Y1146
X104Y1137
X1037Y1133
X1043Y1129
Y1121
X986Y1186
X113Y1184
X1141Y1182
X113Y116
X1166Y1141
X1178
X119
X1174375Y1128
X1169625
X1162125Y1091
X1157875
X1181875
X1186125
X1005Y829
X996Y805
X1026Y797
X1529Y8
X1541385Y808
X1546135
X149675Y851
X1464Y11
X1535
X139Y1097
Y109
X135Y1187
X124675Y117775
X1239Y1178
Y119
Y1166
X1214Y1141
X1202
X1214Y1225
X12065Y12445
X1238Y1244
X1227Y1261
X1239Y1214
Y1202
X1256Y1217875
Y1222125
X135Y1195
X1412Y124
X142825
X1461
Y1234
X1467
Y124
Y1246
X1461
X1503Y124
Y12325
X15Y1224
Y1196
X15405Y12325
Y124
X1502Y1296
X1495
X153975Y13725
Y14025
X1352135Y1302
X1347385
X1302365Y1539
X1297615
X13Y1553
X13025Y1576
X117Y14725
X1161
X1125
X1039688Y1498212
X857Y1507
X850375Y1507125
X849Y1537
X858
X101Y1263
X986Y1192
X11Y1206
Y1214
X1105Y121
X1142
Y1202
X1137Y1203
X1142Y1194
X116Y1249
X1172
X1168Y1261
X4675Y12075
Y1195
T02
X7845Y384
X871Y337
X12845Y38575
X1371Y337
X1343Y42525
Y43225
X1328Y41925
X132Y425
X1312Y41925
X1297Y42525
Y43225
X12535Y46
X1251Y501
X1428Y535
X136Y72
X135
X134
Y735
X135
X136
Y75
X135
X134
X10875Y633
X108775Y604
Y58
X1087Y565
X1088Y55225
X106
X1024
X104525Y52525
X104075Y512
X982Y527
X99225Y58
Y612
X1045Y6475
X1072Y64775
X1014Y695
X96825
X9455Y683
X92Y694
X91775Y6445
X945126Y721
X8415Y53775
X83Y504
X81
X797Y44725
Y44025
X812Y43425
X82Y44025
X828Y43425
X843Y44025
Y44725
X1105Y446
X1112
X612
X605
X47075Y86825
X471Y889
X44Y115
X7Y1145
Y11065
X6485Y1015
X949Y993
X101675Y1089
X1069Y1113
X1149Y1136
X1151Y1151
X119Y119
X986Y1165
X1113Y9855
X104425Y90925
X101925Y80425
X13045Y12245
X13145
Y12395
X13045
Y12545
X13145
X12875Y1297
X122275Y144575
X1207Y1461
X12875Y1552
X1507Y135875
X11075Y1345
X110125Y133725
X1094Y1323
X107725Y131375
X110425Y128475
X1131Y125
X115Y123525
X1172Y12155
X10985Y122625
X10695Y1232
X1045Y1249
X9855Y1253
X98Y1303
X977Y1325
X905Y1296
X825Y1221
Y1195
X849
X9675Y141725
X111Y1459
X11255Y145925
X671Y1416
T03
X719Y1233
T04
X101Y57
X1022
X1034
X1046
X1058
X107
Y582
Y594
Y606
Y618
Y63
X1058
X1046
X1034
X1022
X101
Y618
Y606
Y594
Y582
X1022
X1034
X1046
X1058
Y594
Y606
Y618
X1046
X1034
X1022
Y606
Y594
X1034
X1046
Y606
X1034
T05
X906Y3089
X914
X922
X918Y3159
X926
X934
X942
X946Y3089
X938
X954
X958Y3159
X902
X1402
X1406Y3089
X1414
X1422
X1418Y3159
X1426
X1434
X1442
X1446Y3089
X1438
X1454
X1458Y3159
X3149Y1122
X3079Y1126
Y1134
Y1142
X3149Y1138
Y1146
Y1154
Y1162
X3079Y1158
Y1166
Y1174
X3149Y1178
X1272Y15851
X1288
X1296
X1304
X1312
X1328
X1324Y15921
X1316
X1308
X1292
X1284
X1276
T06
X7565Y6705
Y6805
Y6905
Y7005
X7665
X7765
Y6705
X7665
X7655Y7405
X7755
X7555
Y7505
Y7605
Y7705
X7655
X7755
X775Y8105
X765
X755
Y8205
Y8305
Y8405
X765
X775
X688Y981
Y994
Y1007
Y102
X491Y1247
Y1263
X5Y134
Y135
X51
Y134
X52
Y135
X53
Y134
Y136
X52
X51
X5
Y137
X51
X52
X53
X43075Y135825
X42075
Y134825
X43075
Y133825
Y132825
X42075
Y133825
T08
X894Y3224
X1394
X3214Y1186
X1336Y15786
T10
X645Y3888
X67
X69
X715
X14972Y46
X15122Y465
Y49
Y51
Y535
X14972Y54
Y52
Y5
Y48
Y76
X15122Y765
Y79
X14972Y78
X72Y4038
X7
X68
X66
X64
X14972Y8
Y82
Y84
X15122Y835
Y81
Y1065
X14972Y106
Y108
Y11
Y112
Y114
X15122Y1135
Y111
Y109
T11
X795Y325
X845
X1295
X1345
X7965Y685
X7955Y755
X7705
X7715Y685
X77Y825
X795
X815Y1068
X835
X855
T13
X1145Y3809
X117
X119
X1215
T14
X842Y7146
Y74
Y7654
X67Y7754
Y75
Y7246
X82295Y11192
Y11446
Y117
X84835
Y11446
Y11192
Y12462
X82295
X82Y12846
Y131
Y13354
X3Y15223
Y15477
T15
X8145Y5285
Y5735
X7495
Y5285
X4425Y161775
X3975
X9525
X9975
T17
X8119Y1615
X8373
X8627
X8881
T18
X9799Y8593
X10053
X10307
X10561
Y8847
X10307
X10053
X9799
X11373Y12899
Y13153
Y13407
Y13661
X11627
Y13407
Y13153
Y12899
T19
X51736Y4337
Y4591
Y4845
Y5099
Y5353
Y5607
Y5861
Y6115
Y6369
Y6623
Y6877
Y7131
Y7385
Y7639
Y7893
X54276
Y7639
Y7385
Y7131
Y6877
Y6623
Y6369
Y6115
Y5861
Y5607
Y5353
Y5099
Y4845
Y4591
Y4337
Y8147
Y8401
Y8655
Y8909
Y9163
X51736
Y8909
Y8655
Y8401
Y8147
X1614Y13365
Y14935
X1565Y14875
Y13425
X385Y159225
X455
X8627Y16366
X94Y159225
X101
T20
X794Y1068
X876
T21
X2825Y143
T22
X375Y143
T23
X6143Y3688
X7457
X11143Y3538
X12457
X15322Y4343
Y5657
Y7343
Y8657
Y10343
Y11657
T24
X3Y385
X53
X3Y965
X53
X1015Y98
X1345
Y146
X1015
T25
X3Y3
X16
X3Y16
X16
M30
